# xmcd CD database file
#
# Track frame offsets:
#	150
#	29837
#	59780
#	85410
#	112648
#	132001
#	148255
#	182884
#	211090
#	236221
#	252120
#	289128
#
# Disc length: 4237 seconds
#
# Revision: 4
# Processed by: cddbd v1.5.2PL0 Copyright (c) Steve Scherf et al.
# Submitted via: CDex 1.70beta2
#
DISCID=b8108b0c
DTITLE=Various Artist - CAFE BLUE NOTE [Disc 1]
DYEAR=2012
DGENRE=Jazz
TTITLE0=Softly As In A Morning Sunrise - Sonny Clark
TTITLE1=Make It Good - Duke Pearson
TTITLE2=Now's The Time - The Three Sounds
TTITLE3=Recorda-Me (Remember Me) - Joe Henderson
TTITLE4=Kathy - Horace Silver
TTITLE5=My One And Only Love - Chick Corea
TTITLE6=Lullaby Of The Leaves - Grant Green
TTITLE7=March On Selma - Blue Mitchell
TTITLE8=Cantaloupe Island - Herbie Hancock
TTITLE9=Moonglow - Wynton Kelly
TTITLE10=Willow Weep For Me - Baby Face Willette
TTITLE11=Ceora - Lee Morgan
EXTD=YEAR: 2012
EXTT0=
EXTT1=
EXTT2=
EXTT3=
EXTT4=
EXTT5=
EXTT6=
EXTT7=
EXTT8=
EXTT9=
EXTT10=
EXTT11=
PLAYORDER=
